<svg width="25" height="25" viewBox="0 0 25 25" fill="none" xmlns="http://www.w3.org/2000/svg">
<g clip-path="url(#clip0_878:75)">
<path fill-rule="evenodd" clip-rule="evenodd" d="M21.6353 6.5163C21.6443 6.7485 21.6473 6.98062 21.6473 7.21282C21.6473 14.2528 16.695 22.3801 7.639 22.3801C4.85715 22.3801 2.27043 21.4935 0.0909729 19.9841C0.47623 20.0264 0.867494 20.0581 1.26476 20.0581C3.5713 20.0581 5.69571 19.203 7.38083 17.7675C5.2264 17.7359 3.40719 16.1843 2.77978 14.0734C3.08098 14.1367 3.39116 14.1685 3.70837 14.1685C4.15567 14.1685 4.58996 14.1052 5.00624 13.9786C2.75173 13.493 1.05362 11.3399 1.05362 8.75402C1.05362 8.72236 1.05362 8.71174 1.05362 8.69063C1.71806 9.08116 2.47856 9.32379 3.2861 9.35546C1.96321 8.39498 1.09362 6.75904 1.09362 4.91196C1.09362 3.94093 1.33579 3.02263 1.76207 2.23102C4.18969 5.46077 7.81913 7.5823 11.9109 7.80395C11.8268 7.41342 11.7838 7.00189 11.7838 6.59026C11.7838 3.64549 13.9882 1.26007 16.708 1.26007C18.124 1.26007 19.4028 1.904 20.3004 2.93836C21.4242 2.70616 22.4769 2.26289 23.4295 1.65072C23.0603 2.89618 22.2807 3.94088 21.2621 4.59527C22.2587 4.46861 23.2094 4.18385 24.091 3.76166C23.4295 4.82769 22.597 5.76692 21.6353 6.5163Z" fill="white"/>
</g>
<defs>
<clipPath id="clip0_878:75">
<rect width="24" height="24" fill="white" transform="translate(0.0909729 0.260071)"/>
</clipPath>
</defs>
</svg>
